<svg width="24" height="24" viewBox="0 0 24 24" fill="none" xmlns="http://www.w3.org/2000/svg">
<path d="M11.9987 12.6654C12.3669 12.6654 12.6654 12.3669 12.6654 11.9987C12.6654 11.6305 12.3669 11.332 11.9987 11.332C11.6305 11.332 11.332 11.6305 11.332 11.9987C11.332 12.3669 11.6305 12.6654 11.9987 12.6654Z" stroke="white" stroke-width="1.33333" stroke-linecap="round" stroke-linejoin="round"/>
<path d="M16.6667 12.6654C17.0349 12.6654 17.3333 12.3669 17.3333 11.9987C17.3333 11.6305 17.0349 11.332 16.6667 11.332C16.2985 11.332 16 11.6305 16 11.9987C16 12.3669 16.2985 12.6654 16.6667 12.6654Z" stroke="white" stroke-width="1.33333" stroke-linecap="round" stroke-linejoin="round"/>
<path d="M7.33464 12.6654C7.70283 12.6654 8.0013 12.3669 8.0013 11.9987C8.0013 11.6305 7.70283 11.332 7.33464 11.332C6.96645 11.332 6.66797 11.6305 6.66797 11.9987C6.66797 12.3669 6.96645 12.6654 7.33464 12.6654Z" stroke="white" stroke-width="1.33333" stroke-linecap="round" stroke-linejoin="round"/>
</svg>
