<svg width="214" height="190" viewBox="0 0 214 190" fill="none" xmlns="http://www.w3.org/2000/svg">
<path d="M45.8397 187.485C43.8634 190.085 40.1411 190.604 37.6537 188.487C23.9079 176.789 13.3186 161.78 6.91331 144.837C-0.19037 126.047 -1.86086 105.636 2.09297 85.9402C6.04681 66.2446 15.4653 48.0599 29.2706 33.4667C43.076 18.8735 60.7107 8.46144 80.1568 3.42181C99.6029 -1.61782 120.075 -1.08143 139.23 4.96962C158.386 11.0207 175.451 22.342 188.473 37.638C201.496 52.9341 209.949 71.5871 212.866 91.4628C215.496 109.384 213.529 127.647 207.195 144.549C206.049 147.607 202.544 148.962 199.553 147.648C196.562 146.335 195.221 142.851 196.347 139.785C201.8 124.923 203.471 108.904 201.163 93.1803C198.568 75.5018 191.05 58.9108 179.467 45.3056C167.884 31.7005 152.706 21.6307 135.668 16.2485C118.63 10.8664 100.421 10.3893 83.1242 14.8718C65.8277 19.3544 50.1425 28.6154 37.8632 41.5954C25.5839 54.5754 17.2066 70.7499 13.6899 88.2682C10.1731 105.787 11.659 123.941 17.9774 140.655C23.5972 155.52 32.8382 168.711 44.823 179.053C47.2959 181.187 47.8159 184.884 45.8397 187.485Z" fill="#E0A21A"/>
</svg>
