<svg width="214" height="190" viewBox="0 0 214 190" fill="none" xmlns="http://www.w3.org/2000/svg">
<path d="M45.8397 187.485C43.8634 190.085 40.1411 190.604 37.6536 188.487C22.1517 175.295 10.7009 157.923 4.70636 138.385C-1.8676 116.958 -1.54737 94.0081 5.62187 72.7732C12.7911 51.5383 26.4474 33.0906 44.6636 20.0335C62.8799 6.97634 84.7363 -0.0310658 107.149 0.000103473C129.561 0.0312727 151.398 7.09944 169.578 20.2072C187.758 33.315 201.363 51.8005 208.473 73.0553C215.583 94.3101 215.839 117.261 209.206 138.669C203.157 158.191 191.658 175.53 176.12 188.679C173.626 190.789 169.905 190.26 167.936 187.654C165.967 185.048 166.498 181.353 168.976 179.226C182.545 167.583 192.592 152.323 197.908 135.168C203.808 116.127 203.58 95.7129 197.256 76.8077C190.931 57.9025 178.831 41.4605 162.66 29.8017C146.49 18.1429 127.067 11.8561 107.132 11.8284C87.1975 11.8007 67.7571 18.0334 51.5546 29.6472C35.352 41.2609 23.2054 57.6693 16.8287 76.5568C10.452 95.4443 10.1671 115.857 16.0144 134.915C21.282 152.084 31.2867 167.373 44.823 179.053C47.2959 181.187 47.8159 184.884 45.8397 187.485Z" fill="white" fill-opacity="0.1"/>
</svg>
