<svg width="156" height="26" viewBox="0 0 156 26" fill="none" xmlns="http://www.w3.org/2000/svg">
<path d="M0 3C0 1.34315 1.34315 0 3 0C4.65685 0 6 1.34315 6 3C6 4.65685 4.65685 6 3 6C1.34315 6 0 4.65685 0 3Z" fill="#E1AD2A"/>
<path d="M10 3C10 1.34315 11.3431 0 13 0C14.6569 0 16 1.34315 16 3C16 4.65685 14.6569 6 13 6C11.3431 6 10 4.65685 10 3Z" fill="#E1AD2A"/>
<path d="M20 3C20 1.34315 21.3431 0 23 0C24.6569 0 26 1.34315 26 3C26 4.65685 24.6569 6 23 6C21.3431 6 20 4.65685 20 3Z" fill="#E1AD2A"/>
<path d="M30 3C30 1.34315 31.3431 0 33 0C34.6569 0 36 1.34315 36 3C36 4.65685 34.6569 6 33 6C31.3431 6 30 4.65685 30 3Z" fill="#F97316"/>
<path d="M0 12C0 10.3431 1.34315 9 3 9C4.65685 9 6 10.3431 6 12C6 13.6569 4.65685 15 3 15C1.34315 15 0 13.6569 0 12Z" fill="#F97316"/>
<path d="M10 12C10 10.3431 11.3431 9 13 9C14.6569 9 16 10.3431 16 12C16 13.6569 14.6569 15 13 15C11.3431 15 10 13.6569 10 12Z" fill="#F97316"/>
<path d="M20 12C20 10.3431 21.3431 9 23 9C24.6569 9 26 10.3431 26 12C26 13.6569 24.6569 15 23 15C21.3431 15 20 13.6569 20 12Z" fill="#F97316"/>
<path d="M30 12C30 10.3431 31.3431 9 33 9C34.6569 9 36 10.3431 36 12C36 13.6569 34.6569 15 33 15C31.3431 15 30 13.6569 30 12Z" fill="#F97316"/>
<path d="M0 21C0 19.3431 1.34315 18 3 18C4.65685 18 6 19.3431 6 21C6 22.6569 4.65685 24 3 24C1.34315 24 0 22.6569 0 21Z" fill="#F97316"/>
<path d="M10 21C10 19.3431 11.3431 18 13 18C14.6569 18 16 19.3431 16 21C16 22.6569 14.6569 24 13 24C11.3431 24 10 22.6569 10 21Z" fill="#44433C"/>
<path d="M20 21C20 19.3431 21.3431 18 23 18C24.6569 18 26 19.3431 26 21C26 22.6569 24.6569 24 23 24C21.3431 24 20 22.6569 20 21Z" fill="#44433C"/>
<path d="M30 21C30 19.3431 31.3431 18 33 18C34.6569 18 36 19.3431 36 21C36 22.6569 34.6569 24 33 24C31.3431 24 30 22.6569 30 21Z" fill="#44433C"/>
<path d="M60 3C60 1.34315 61.3431 0 63 0C64.6569 0 66 1.34315 66 3C66 4.65685 64.6569 6 63 6C61.3431 6 60 4.65685 60 3Z" fill="#E9B029"/>
<path d="M70 3C70 1.34315 71.3431 0 73 0C74.6569 0 76 1.34315 76 3C76 4.65685 74.6569 6 73 6C71.3431 6 70 4.65685 70 3Z" fill="#E9B029"/>
<path d="M80 3C80 1.34315 81.3431 0 83 0C84.6569 0 86 1.34315 86 3C86 4.65685 84.6569 6 83 6C81.3431 6 80 4.65685 80 3Z" fill="#F97316"/>
<path d="M90 3C90 1.34315 91.3431 0 93 0C94.6569 0 96 1.34315 96 3C96 4.65685 94.6569 6 93 6C91.3431 6 90 4.65685 90 3Z" fill="#F97316"/>
<path d="M60 13C60 11.3431 61.3431 10 63 10C64.6569 10 66 11.3431 66 13C66 14.6569 64.6569 16 63 16C61.3431 16 60 14.6569 60 13Z" fill="#E9B029"/>
<path d="M70 13C70 11.3431 71.3431 10 73 10C74.6569 10 76 11.3431 76 13C76 14.6569 74.6569 16 73 16C71.3431 16 70 14.6569 70 13Z" fill="#E9B029"/>
<path d="M80 13C80 11.3431 81.3431 10 83 10C84.6569 10 86 11.3431 86 13C86 14.6569 84.6569 16 83 16C81.3431 16 80 14.6569 80 13Z" fill="#F97316"/>
<path d="M90 13C90 11.3431 91.3431 10 93 10C94.6569 10 96 11.3431 96 13C96 14.6569 94.6569 16 93 16C91.3431 16 90 14.6569 90 13Z" fill="#F97316"/>
<path d="M60 23C60 21.3431 61.3431 20 63 20C64.6569 20 66 21.3431 66 23C66 24.6569 64.6569 26 63 26C61.3431 26 60 24.6569 60 23Z" fill="#F97316"/>
<path d="M70 23C70 21.3431 71.3431 20 73 20C74.6569 20 76 21.3431 76 23C76 24.6569 74.6569 26 73 26C71.3431 26 70 24.6569 70 23Z" fill="#44433C"/>
<path d="M80 23C80 21.3431 81.3431 20 83 20C84.6569 20 86 21.3431 86 23C86 24.6569 84.6569 26 83 26C81.3431 26 80 24.6569 80 23Z" fill="#F97316"/>
<path d="M90 23C90 21.3431 91.3431 20 93 20C94.6569 20 96 21.3431 96 23C96 24.6569 94.6569 26 93 26C91.3431 26 90 24.6569 90 23Z" fill="#44433C"/>
<path d="M120 3C120 1.34315 121.343 0 123 0C124.657 0 126 1.34315 126 3C126 4.65685 124.657 6 123 6C121.343 6 120 4.65685 120 3Z" fill="#E9B029"/>
<path d="M130 3C130 1.34315 131.343 0 133 0C134.657 0 136 1.34315 136 3C136 4.65685 134.657 6 133 6C131.343 6 130 4.65685 130 3Z" fill="#44433C"/>
<path d="M140 3C140 1.34315 141.343 0 143 0C144.657 0 146 1.34315 146 3C146 4.65685 144.657 6 143 6C141.343 6 140 4.65685 140 3Z" fill="#E9B029"/>
<path d="M150 3C150 1.34315 151.343 0 153 0C154.657 0 156 1.34315 156 3C156 4.65685 154.657 6 153 6C151.343 6 150 4.65685 150 3Z" fill="#F97316"/>
<path d="M120 13C120 11.3431 121.343 10 123 10C124.657 10 126 11.3431 126 13C126 14.6569 124.657 16 123 16C121.343 16 120 14.6569 120 13Z" fill="#F97316"/>
<path d="M130 13C130 11.3431 131.343 10 133 10C134.657 10 136 11.3431 136 13C136 14.6569 134.657 16 133 16C131.343 16 130 14.6569 130 13Z" fill="#E9B029"/>
<path d="M140 13C140 11.3431 141.343 10 143 10C144.657 10 146 11.3431 146 13C146 14.6569 144.657 16 143 16C141.343 16 140 14.6569 140 13Z" fill="#F97316"/>
<path d="M150 13C150 11.3431 151.343 10 153 10C154.657 10 156 11.3431 156 13C156 14.6569 154.657 16 153 16C151.343 16 150 14.6569 150 13Z" fill="#F97316"/>
<path d="M120 23C120 21.3431 121.343 20 123 20C124.657 20 126 21.3431 126 23C126 24.6569 124.657 26 123 26C121.343 26 120 24.6569 120 23Z" fill="#F97316"/>
<path d="M130 23C130 21.3431 131.343 20 133 20C134.657 20 136 21.3431 136 23C136 24.6569 134.657 26 133 26C131.343 26 130 24.6569 130 23Z" fill="#F97316"/>
<path d="M140 23C140 21.3431 141.343 20 143 20C144.657 20 146 21.3431 146 23C146 24.6569 144.657 26 143 26C141.343 26 140 24.6569 140 23Z" fill="#44433C"/>
<path d="M150 23C150 21.3431 151.343 20 153 20C154.657 20 156 21.3431 156 23C156 24.6569 154.657 26 153 26C151.343 26 150 24.6569 150 23Z" fill="#44433C"/>
</svg>
