<svg width="168" height="48" viewBox="0 0 168 48" fill="none" xmlns="http://www.w3.org/2000/svg">
<g filter="url(#filter0_i_1_273)">
<rect width="48" height="48" rx="24" fill="white" fill-opacity="0.1"/>
<g opacity="0.9">
<path d="M27.5 18H18C16.2051 18 14.75 19.4551 14.75 21.25V26.75C14.75 28.5449 16.2051 30 18 30H27.5C29.2949 30 30.75 28.5449 30.75 26.75V21.25C30.75 19.4551 29.2949 18 27.5 18Z" stroke="white" stroke-width="1.5" stroke-linecap="round" stroke-linejoin="round"/>
<path d="M22.75 20.5H18.75C17.9216 20.5 17.25 21.1716 17.25 22V26C17.25 26.8284 17.9216 27.5 18.75 27.5H22.75C23.5784 27.5 24.25 26.8284 24.25 26V22C24.25 21.1716 23.5784 20.5 22.75 20.5Z" fill="white"/>
<path d="M33.25 22V26" stroke="white" stroke-width="1.5" stroke-linecap="round" stroke-linejoin="round"/>
</g>
</g>
<g filter="url(#filter1_i_1_273)">
<rect x="60" width="48" height="48" rx="24" fill="white" fill-opacity="0.1"/>
<g opacity="0.9">
<path d="M78 18.5L89 29L83.5 34V14L89 19L78 29.5" stroke="white" stroke-width="2" stroke-linecap="round" stroke-linejoin="round"/>
</g>
</g>
<g filter="url(#filter2_i_1_273)">
<rect x="120" width="48" height="48" rx="24" fill="white" fill-opacity="0.1"/>
<g opacity="0.9">
<path d="M142.225 32.275C141.742 31.7917 141.5 31.2 141.5 30.5C141.5 29.8 141.742 29.2083 142.225 28.725C142.708 28.2417 143.3 28 144 28C144.7 28 145.292 28.2417 145.775 28.725C146.258 29.2083 146.5 29.8 146.5 30.5C146.5 31.2 146.258 31.7917 145.775 32.275C145.292 32.7583 144.7 33 144 33C143.3 33 142.708 32.7583 142.225 32.275ZM147.563 22.6C148.688 23 149.708 23.55 150.625 24.25C150.958 24.5 151.129 24.8293 151.138 25.238C151.147 25.6467 151.001 26.0007 150.7 26.3C150.417 26.5833 150.067 26.7293 149.65 26.738C149.233 26.7467 148.858 26.634 148.525 26.4C147.892 25.9667 147.192 25.625 146.425 25.375C145.658 25.125 144.85 25 144 25C143.15 25 142.342 25.125 141.575 25.375C140.808 25.625 140.108 25.9667 139.475 26.4C139.142 26.6333 138.767 26.7417 138.35 26.725C137.933 26.7083 137.583 26.5583 137.3 26.275C137.017 25.975 136.875 25.621 136.875 25.213C136.875 24.805 137.042 24.4757 137.375 24.225C138.292 23.525 139.313 22.979 140.438 22.587C141.563 22.195 142.751 21.9993 144 22C145.249 22.0007 146.437 22.2007 147.563 22.6ZM149.887 17.025C151.729 17.7083 153.383 18.675 154.85 19.925C155.183 20.2083 155.358 20.5583 155.375 20.975C155.392 21.3917 155.25 21.75 154.95 22.05C154.667 22.3333 154.317 22.4793 153.9 22.488C153.483 22.4967 153.108 22.3673 152.775 22.1C151.575 21.1167 150.229 20.3543 148.738 19.813C147.247 19.2717 145.667 19.0007 144 19C142.333 18.9993 140.754 19.2703 139.263 19.813C137.772 20.3557 136.426 21.118 135.225 22.1C134.892 22.3667 134.517 22.496 134.1 22.488C133.683 22.48 133.333 22.334 133.05 22.05C132.75 21.75 132.608 21.3917 132.625 20.975C132.642 20.5583 132.817 20.2083 133.15 19.925C134.617 18.675 136.271 17.7083 138.113 17.025C139.955 16.3417 141.917 16 144 16C146.083 16 148.045 16.3417 149.888 17.025" fill="white"/>
</g>
</g>
<defs>
<filter id="filter0_i_1_273" x="0" y="0" width="48" height="48" filterUnits="userSpaceOnUse" color-interpolation-filters="sRGB">
<feFlood flood-opacity="0" result="BackgroundImageFix"/>
<feBlend mode="normal" in="SourceGraphic" in2="BackgroundImageFix" result="shape"/>
<feColorMatrix in="SourceAlpha" type="matrix" values="0 0 0 0 0 0 0 0 0 0 0 0 0 0 0 0 0 0 127 0" result="hardAlpha"/>
<feOffset/>
<feGaussianBlur stdDeviation="3"/>
<feComposite in2="hardAlpha" operator="arithmetic" k2="-1" k3="1"/>
<feColorMatrix type="matrix" values="0 0 0 0 1 0 0 0 0 1 0 0 0 0 1 0 0 0 0.25 0"/>
<feBlend mode="normal" in2="shape" result="effect1_innerShadow_1_273"/>
</filter>
<filter id="filter1_i_1_273" x="60" y="0" width="48" height="48" filterUnits="userSpaceOnUse" color-interpolation-filters="sRGB">
<feFlood flood-opacity="0" result="BackgroundImageFix"/>
<feBlend mode="normal" in="SourceGraphic" in2="BackgroundImageFix" result="shape"/>
<feColorMatrix in="SourceAlpha" type="matrix" values="0 0 0 0 0 0 0 0 0 0 0 0 0 0 0 0 0 0 127 0" result="hardAlpha"/>
<feOffset/>
<feGaussianBlur stdDeviation="3"/>
<feComposite in2="hardAlpha" operator="arithmetic" k2="-1" k3="1"/>
<feColorMatrix type="matrix" values="0 0 0 0 1 0 0 0 0 1 0 0 0 0 1 0 0 0 0.25 0"/>
<feBlend mode="normal" in2="shape" result="effect1_innerShadow_1_273"/>
</filter>
<filter id="filter2_i_1_273" x="120" y="0" width="48" height="48" filterUnits="userSpaceOnUse" color-interpolation-filters="sRGB">
<feFlood flood-opacity="0" result="BackgroundImageFix"/>
<feBlend mode="normal" in="SourceGraphic" in2="BackgroundImageFix" result="shape"/>
<feColorMatrix in="SourceAlpha" type="matrix" values="0 0 0 0 0 0 0 0 0 0 0 0 0 0 0 0 0 0 127 0" result="hardAlpha"/>
<feOffset/>
<feGaussianBlur stdDeviation="3"/>
<feComposite in2="hardAlpha" operator="arithmetic" k2="-1" k3="1"/>
<feColorMatrix type="matrix" values="0 0 0 0 1 0 0 0 0 1 0 0 0 0 1 0 0 0 0.25 0"/>
<feBlend mode="normal" in2="shape" result="effect1_innerShadow_1_273"/>
</filter>
</defs>
</svg>
