<svg width="16" height="16" viewBox="0 0 16 16" fill="none" xmlns="http://www.w3.org/2000/svg">
<path fill-rule="evenodd" clip-rule="evenodd" d="M3.87487 12.1244C3.78111 12.0306 3.72843 11.9035 3.72843 11.7709C3.72843 11.6383 3.78111 11.5111 3.87487 11.4173L10.5641 4.72808L6.11405 4.72808C6.04694 4.73045 5.98005 4.71928 5.91736 4.69523C5.85466 4.67119 5.79745 4.63476 5.74915 4.58813C5.70084 4.54149 5.66242 4.48561 5.63617 4.4238C5.60993 4.362 5.59641 4.29554 5.59641 4.22839C5.59641 4.16125 5.60993 4.09479 5.63617 4.03298C5.66241 3.97118 5.70084 3.91529 5.74915 3.86866C5.79745 3.82202 5.85466 3.7856 5.91736 3.76155C5.98005 3.73751 6.04694 3.72634 6.11404 3.7287L11.7709 3.7287C11.9034 3.72879 12.0304 3.78146 12.1241 3.87515C12.2178 3.96884 12.2705 4.09589 12.2706 4.22839L12.2706 9.88525C12.273 9.95235 12.2618 10.0192 12.2377 10.0819C12.2137 10.1446 12.1773 10.2018 12.1306 10.2501C12.084 10.2985 12.0281 10.3369 11.9663 10.3631C11.9045 10.3894 11.838 10.4029 11.7709 10.4029C11.7038 10.4029 11.6373 10.3894 11.5755 10.3631C11.5137 10.3369 11.4578 10.2985 11.4112 10.2501C11.3645 10.2018 11.3281 10.1446 11.3041 10.0819C11.28 10.0192 11.2688 9.95235 11.2712 9.88525L11.2712 5.43519L4.58198 12.1244C4.48821 12.2182 4.36104 12.2709 4.22843 12.2709C4.09582 12.2709 3.96864 12.2182 3.87487 12.1244Z" fill="white"/>
</svg>
